<mxfile host="Electron" agent="Mozilla/5.0 (X11; Linux x86_64) AppleWebKit/537.36 (KHTML, like Gecko) draw.io/26.0.16 Chrome/132.0.6834.210 Electron/34.3.2 Safari/537.36" version="26.0.16" pages="5">
  <diagram name="1" id="raGk_D8FTLXwgUmbc4jt">
    <mxGraphModel dx="279" dy="351" grid="1" gridSize="10" guides="1" tooltips="1" connect="1" arrows="1" fold="1" page="1" pageScale="1" pageWidth="260" pageHeight="180" math="0" shadow="0">
      <root>
        <mxCell id="0" />
        <mxCell id="1" parent="0" />
        <mxCell id="DO6ZzCb4w2R0OvcLklnq-11" style="edgeStyle=orthogonalEdgeStyle;rounded=0;orthogonalLoop=1;jettySize=auto;html=1;exitX=1;exitY=0.5;exitDx=0;exitDy=0;entryX=0;entryY=0.5;entryDx=0;entryDy=0;fillColor=#dae8fc;strokeColor=#6c8ebf;" edge="1" parent="1" source="zCmTgFsGxIaxcytd8qIg-1" target="DO6ZzCb4w2R0OvcLklnq-3">
          <mxGeometry relative="1" as="geometry" />
        </mxCell>
        <mxCell id="zCmTgFsGxIaxcytd8qIg-1" value="1" style="text;html=1;align=center;verticalAlign=middle;whiteSpace=wrap;rounded=0;fillColor=#dae8fc;strokeColor=#6c8ebf;fontSize=14;fontColor=#333333;" parent="1" vertex="1">
          <mxGeometry x="60" y="40" width="40" height="20" as="geometry" />
        </mxCell>
        <mxCell id="AQBsLTuEEX6UYwU5JBV7-1" value="candles" style="text;html=1;align=center;verticalAlign=middle;whiteSpace=wrap;rounded=0;fontSize=10;" parent="1" vertex="1">
          <mxGeometry x="60" y="140.00000000000006" width="40" height="20" as="geometry" />
        </mxCell>
        <mxCell id="DO6ZzCb4w2R0OvcLklnq-12" style="edgeStyle=orthogonalEdgeStyle;rounded=0;orthogonalLoop=1;jettySize=auto;html=1;exitX=1;exitY=0.5;exitDx=0;exitDy=0;entryX=0;entryY=0.5;entryDx=0;entryDy=0;fillColor=#dae8fc;strokeColor=#6c8ebf;" edge="1" parent="1" source="ppWKIRa7KteUTko_k6aL-1" target="DO6ZzCb4w2R0OvcLklnq-3">
          <mxGeometry relative="1" as="geometry" />
        </mxCell>
        <mxCell id="ppWKIRa7KteUTko_k6aL-1" value="1" style="text;html=1;align=center;verticalAlign=middle;whiteSpace=wrap;rounded=0;fillColor=#dae8fc;strokeColor=#6c8ebf;fontSize=14;fontColor=#333333;" parent="1" vertex="1">
          <mxGeometry x="60" y="60" width="40" height="20" as="geometry" />
        </mxCell>
        <mxCell id="ppWKIRa7KteUTko_k6aL-2" value="2" style="text;html=1;align=center;verticalAlign=middle;whiteSpace=wrap;rounded=0;fillColor=#f5f5f5;strokeColor=#666666;fontSize=14;fontColor=#333333;" parent="1" vertex="1">
          <mxGeometry x="60" y="80" width="40" height="20" as="geometry" />
        </mxCell>
        <mxCell id="ppWKIRa7KteUTko_k6aL-3" value="2" style="text;html=1;align=center;verticalAlign=middle;whiteSpace=wrap;rounded=0;fillColor=#f5f5f5;strokeColor=#666666;fontSize=14;fontColor=#333333;" parent="1" vertex="1">
          <mxGeometry x="60" y="100" width="40" height="20" as="geometry" />
        </mxCell>
        <mxCell id="ppWKIRa7KteUTko_k6aL-31" value="0" style="text;html=1;align=center;verticalAlign=middle;whiteSpace=wrap;rounded=0;fontSize=10;" parent="1" vertex="1">
          <mxGeometry x="40" y="40" width="20" height="20" as="geometry" />
        </mxCell>
        <mxCell id="ppWKIRa7KteUTko_k6aL-32" value="1" style="text;html=1;align=center;verticalAlign=middle;whiteSpace=wrap;rounded=0;fontSize=10;" parent="1" vertex="1">
          <mxGeometry x="40" y="60" width="20" height="20" as="geometry" />
        </mxCell>
        <mxCell id="ppWKIRa7KteUTko_k6aL-33" value="2" style="text;html=1;align=center;verticalAlign=middle;whiteSpace=wrap;rounded=0;fontSize=10;" parent="1" vertex="1">
          <mxGeometry x="40" y="80" width="20" height="20" as="geometry" />
        </mxCell>
        <mxCell id="ppWKIRa7KteUTko_k6aL-34" value="3" style="text;html=1;align=center;verticalAlign=middle;whiteSpace=wrap;rounded=0;fontSize=10;" parent="1" vertex="1">
          <mxGeometry x="40" y="100" width="20" height="20" as="geometry" />
        </mxCell>
        <mxCell id="DO6ZzCb4w2R0OvcLklnq-1" value="3" style="text;html=1;align=center;verticalAlign=middle;whiteSpace=wrap;rounded=0;fillColor=#f5f5f5;strokeColor=#666666;fontSize=14;fontColor=#333333;" vertex="1" parent="1">
          <mxGeometry x="60" y="120" width="40" height="20" as="geometry" />
        </mxCell>
        <mxCell id="DO6ZzCb4w2R0OvcLklnq-2" value="4" style="text;html=1;align=center;verticalAlign=middle;whiteSpace=wrap;rounded=0;fontSize=10;" vertex="1" parent="1">
          <mxGeometry x="40" y="120" width="20" height="20" as="geometry" />
        </mxCell>
        <mxCell id="DO6ZzCb4w2R0OvcLklnq-3" value="1" style="text;html=1;align=center;verticalAlign=middle;whiteSpace=wrap;rounded=0;fillColor=#dae8fc;strokeColor=#6c8ebf;fontSize=14;fontColor=#333333;" vertex="1" parent="1">
          <mxGeometry x="140" y="40" width="40" height="20" as="geometry" />
        </mxCell>
        <mxCell id="DO6ZzCb4w2R0OvcLklnq-4" value="counts" style="text;html=1;align=center;verticalAlign=middle;whiteSpace=wrap;rounded=0;fontSize=10;" vertex="1" parent="1">
          <mxGeometry x="140" y="60" width="80" height="20" as="geometry" />
        </mxCell>
        <mxCell id="DO6ZzCb4w2R0OvcLklnq-5" value="2" style="text;html=1;align=center;verticalAlign=middle;whiteSpace=wrap;rounded=0;fillColor=#d5e8d4;strokeColor=#82b366;fontSize=14;fontColor=#333333;" vertex="1" parent="1">
          <mxGeometry x="180" y="40" width="40" height="20" as="geometry" />
        </mxCell>
      </root>
    </mxGraphModel>
  </diagram>
  <diagram name="2" id="SK9Ennrj0UhAumo8ajvo">
    <mxGraphModel dx="279" dy="351" grid="1" gridSize="10" guides="1" tooltips="1" connect="1" arrows="1" fold="1" page="1" pageScale="1" pageWidth="260" pageHeight="180" math="0" shadow="0">
      <root>
        <mxCell id="MwznAU9sF5vakZhjTwjD-0" />
        <mxCell id="MwznAU9sF5vakZhjTwjD-1" parent="MwznAU9sF5vakZhjTwjD-0" />
        <mxCell id="MwznAU9sF5vakZhjTwjD-3" value="1" style="text;html=1;align=center;verticalAlign=middle;whiteSpace=wrap;rounded=0;fillColor=#f5f5f5;strokeColor=#666666;fontSize=14;fontColor=#333333;" vertex="1" parent="MwznAU9sF5vakZhjTwjD-1">
          <mxGeometry x="60" y="40" width="40" height="20" as="geometry" />
        </mxCell>
        <mxCell id="MwznAU9sF5vakZhjTwjD-4" value="candles" style="text;html=1;align=center;verticalAlign=middle;whiteSpace=wrap;rounded=0;fontSize=10;" vertex="1" parent="MwznAU9sF5vakZhjTwjD-1">
          <mxGeometry x="60" y="140.00000000000006" width="40" height="20" as="geometry" />
        </mxCell>
        <mxCell id="MwznAU9sF5vakZhjTwjD-6" value="1" style="text;html=1;align=center;verticalAlign=middle;whiteSpace=wrap;rounded=0;fillColor=#f5f5f5;strokeColor=#666666;fontSize=14;fontColor=#333333;" vertex="1" parent="MwznAU9sF5vakZhjTwjD-1">
          <mxGeometry x="60" y="60" width="40" height="20" as="geometry" />
        </mxCell>
        <mxCell id="Gc2gKnQbK4Z0GrP5sx4p-0" style="edgeStyle=orthogonalEdgeStyle;rounded=0;orthogonalLoop=1;jettySize=auto;html=1;exitX=1;exitY=0.5;exitDx=0;exitDy=0;entryX=0;entryY=0.5;entryDx=0;entryDy=0;fillColor=#dae8fc;strokeColor=#6c8ebf;" edge="1" parent="MwznAU9sF5vakZhjTwjD-1" source="MwznAU9sF5vakZhjTwjD-7" target="8InXROOrHCiHCRHmxhJo-0">
          <mxGeometry relative="1" as="geometry" />
        </mxCell>
        <mxCell id="MwznAU9sF5vakZhjTwjD-7" value="2" style="text;html=1;align=center;verticalAlign=middle;whiteSpace=wrap;rounded=0;fillColor=#dae8fc;strokeColor=#6c8ebf;fontSize=14;fontColor=#333333;" vertex="1" parent="MwznAU9sF5vakZhjTwjD-1">
          <mxGeometry x="60" y="80" width="40" height="20" as="geometry" />
        </mxCell>
        <mxCell id="Gc2gKnQbK4Z0GrP5sx4p-1" style="edgeStyle=orthogonalEdgeStyle;rounded=0;orthogonalLoop=1;jettySize=auto;html=1;exitX=1;exitY=0.5;exitDx=0;exitDy=0;entryX=0;entryY=0.5;entryDx=0;entryDy=0;fillColor=#dae8fc;strokeColor=#6c8ebf;" edge="1" parent="MwznAU9sF5vakZhjTwjD-1" source="MwznAU9sF5vakZhjTwjD-8" target="8InXROOrHCiHCRHmxhJo-0">
          <mxGeometry relative="1" as="geometry" />
        </mxCell>
        <mxCell id="MwznAU9sF5vakZhjTwjD-8" value="2" style="text;html=1;align=center;verticalAlign=middle;whiteSpace=wrap;rounded=0;fillColor=#dae8fc;strokeColor=#6c8ebf;fontSize=14;fontColor=#333333;" vertex="1" parent="MwznAU9sF5vakZhjTwjD-1">
          <mxGeometry x="60" y="100" width="40" height="20" as="geometry" />
        </mxCell>
        <mxCell id="MwznAU9sF5vakZhjTwjD-9" value="0" style="text;html=1;align=center;verticalAlign=middle;whiteSpace=wrap;rounded=0;fontSize=10;" vertex="1" parent="MwznAU9sF5vakZhjTwjD-1">
          <mxGeometry x="40" y="40" width="20" height="20" as="geometry" />
        </mxCell>
        <mxCell id="MwznAU9sF5vakZhjTwjD-10" value="1" style="text;html=1;align=center;verticalAlign=middle;whiteSpace=wrap;rounded=0;fontSize=10;" vertex="1" parent="MwznAU9sF5vakZhjTwjD-1">
          <mxGeometry x="40" y="60" width="20" height="20" as="geometry" />
        </mxCell>
        <mxCell id="MwznAU9sF5vakZhjTwjD-11" value="2" style="text;html=1;align=center;verticalAlign=middle;whiteSpace=wrap;rounded=0;fontSize=10;" vertex="1" parent="MwznAU9sF5vakZhjTwjD-1">
          <mxGeometry x="40" y="80" width="20" height="20" as="geometry" />
        </mxCell>
        <mxCell id="MwznAU9sF5vakZhjTwjD-12" value="3" style="text;html=1;align=center;verticalAlign=middle;whiteSpace=wrap;rounded=0;fontSize=10;" vertex="1" parent="MwznAU9sF5vakZhjTwjD-1">
          <mxGeometry x="40" y="100" width="20" height="20" as="geometry" />
        </mxCell>
        <mxCell id="MwznAU9sF5vakZhjTwjD-13" value="3" style="text;html=1;align=center;verticalAlign=middle;whiteSpace=wrap;rounded=0;fillColor=#f5f5f5;strokeColor=#666666;fontSize=14;fontColor=#333333;" vertex="1" parent="MwznAU9sF5vakZhjTwjD-1">
          <mxGeometry x="60" y="120" width="40" height="20" as="geometry" />
        </mxCell>
        <mxCell id="MwznAU9sF5vakZhjTwjD-14" value="4" style="text;html=1;align=center;verticalAlign=middle;whiteSpace=wrap;rounded=0;fontSize=10;" vertex="1" parent="MwznAU9sF5vakZhjTwjD-1">
          <mxGeometry x="40" y="120" width="20" height="20" as="geometry" />
        </mxCell>
        <mxCell id="MwznAU9sF5vakZhjTwjD-15" value="1" style="text;html=1;align=center;verticalAlign=middle;whiteSpace=wrap;rounded=0;fillColor=#f5f5f5;strokeColor=#666666;fontSize=14;fontColor=#333333;" vertex="1" parent="MwznAU9sF5vakZhjTwjD-1">
          <mxGeometry x="140" y="40" width="40" height="20" as="geometry" />
        </mxCell>
        <mxCell id="MwznAU9sF5vakZhjTwjD-16" value="counts" style="text;html=1;align=center;verticalAlign=middle;whiteSpace=wrap;rounded=0;fontSize=10;" vertex="1" parent="MwznAU9sF5vakZhjTwjD-1">
          <mxGeometry x="140" y="80" width="80" height="20" as="geometry" />
        </mxCell>
        <mxCell id="MwznAU9sF5vakZhjTwjD-17" value="2" style="text;html=1;align=center;verticalAlign=middle;whiteSpace=wrap;rounded=0;fillColor=#f5f5f5;strokeColor=#666666;fontSize=14;fontColor=#333333;" vertex="1" parent="MwznAU9sF5vakZhjTwjD-1">
          <mxGeometry x="180" y="40" width="40" height="20" as="geometry" />
        </mxCell>
        <mxCell id="8InXROOrHCiHCRHmxhJo-0" value="2" style="text;html=1;align=center;verticalAlign=middle;whiteSpace=wrap;rounded=0;fillColor=#dae8fc;strokeColor=#6c8ebf;fontSize=14;fontColor=#333333;" vertex="1" parent="MwznAU9sF5vakZhjTwjD-1">
          <mxGeometry x="140" y="60" width="40" height="20" as="geometry" />
        </mxCell>
        <mxCell id="8InXROOrHCiHCRHmxhJo-1" value="2" style="text;html=1;align=center;verticalAlign=middle;whiteSpace=wrap;rounded=0;fillColor=#d5e8d4;strokeColor=#82b366;fontSize=14;fontColor=#333333;" vertex="1" parent="MwznAU9sF5vakZhjTwjD-1">
          <mxGeometry x="180" y="60" width="40" height="20" as="geometry" />
        </mxCell>
      </root>
    </mxGraphModel>
  </diagram>
  <diagram name="3" id="0YMC_B2pLYnMgZnO6704">
    <mxGraphModel dx="335" dy="422" grid="1" gridSize="10" guides="1" tooltips="1" connect="1" arrows="1" fold="1" page="1" pageScale="1" pageWidth="260" pageHeight="180" math="0" shadow="0">
      <root>
        <mxCell id="8Um6TVoQ_LKMFP3Fa9xW-0" />
        <mxCell id="8Um6TVoQ_LKMFP3Fa9xW-1" parent="8Um6TVoQ_LKMFP3Fa9xW-0" />
        <mxCell id="8Um6TVoQ_LKMFP3Fa9xW-2" value="1" style="text;html=1;align=center;verticalAlign=middle;whiteSpace=wrap;rounded=0;fillColor=#f5f5f5;strokeColor=#666666;fontSize=14;fontColor=#333333;" vertex="1" parent="8Um6TVoQ_LKMFP3Fa9xW-1">
          <mxGeometry x="60" y="40" width="40" height="20" as="geometry" />
        </mxCell>
        <mxCell id="8Um6TVoQ_LKMFP3Fa9xW-3" value="candles" style="text;html=1;align=center;verticalAlign=middle;whiteSpace=wrap;rounded=0;fontSize=10;" vertex="1" parent="8Um6TVoQ_LKMFP3Fa9xW-1">
          <mxGeometry x="60" y="140.00000000000006" width="40" height="20" as="geometry" />
        </mxCell>
        <mxCell id="8Um6TVoQ_LKMFP3Fa9xW-4" value="1" style="text;html=1;align=center;verticalAlign=middle;whiteSpace=wrap;rounded=0;fillColor=#f5f5f5;strokeColor=#666666;fontSize=14;fontColor=#333333;" vertex="1" parent="8Um6TVoQ_LKMFP3Fa9xW-1">
          <mxGeometry x="60" y="60" width="40" height="20" as="geometry" />
        </mxCell>
        <mxCell id="8Um6TVoQ_LKMFP3Fa9xW-6" value="2" style="text;html=1;align=center;verticalAlign=middle;whiteSpace=wrap;rounded=0;fillColor=#f5f5f5;strokeColor=#666666;fontSize=14;fontColor=#333333;" vertex="1" parent="8Um6TVoQ_LKMFP3Fa9xW-1">
          <mxGeometry x="60" y="80" width="40" height="20" as="geometry" />
        </mxCell>
        <mxCell id="8Um6TVoQ_LKMFP3Fa9xW-8" value="2" style="text;html=1;align=center;verticalAlign=middle;whiteSpace=wrap;rounded=0;fillColor=#f5f5f5;strokeColor=#666666;fontSize=14;fontColor=#333333;" vertex="1" parent="8Um6TVoQ_LKMFP3Fa9xW-1">
          <mxGeometry x="60" y="100" width="40" height="20" as="geometry" />
        </mxCell>
        <mxCell id="8Um6TVoQ_LKMFP3Fa9xW-9" value="0" style="text;html=1;align=center;verticalAlign=middle;whiteSpace=wrap;rounded=0;fontSize=10;" vertex="1" parent="8Um6TVoQ_LKMFP3Fa9xW-1">
          <mxGeometry x="40" y="40" width="20" height="20" as="geometry" />
        </mxCell>
        <mxCell id="8Um6TVoQ_LKMFP3Fa9xW-10" value="1" style="text;html=1;align=center;verticalAlign=middle;whiteSpace=wrap;rounded=0;fontSize=10;" vertex="1" parent="8Um6TVoQ_LKMFP3Fa9xW-1">
          <mxGeometry x="40" y="60" width="20" height="20" as="geometry" />
        </mxCell>
        <mxCell id="8Um6TVoQ_LKMFP3Fa9xW-11" value="2" style="text;html=1;align=center;verticalAlign=middle;whiteSpace=wrap;rounded=0;fontSize=10;" vertex="1" parent="8Um6TVoQ_LKMFP3Fa9xW-1">
          <mxGeometry x="40" y="80" width="20" height="20" as="geometry" />
        </mxCell>
        <mxCell id="8Um6TVoQ_LKMFP3Fa9xW-12" value="3" style="text;html=1;align=center;verticalAlign=middle;whiteSpace=wrap;rounded=0;fontSize=10;" vertex="1" parent="8Um6TVoQ_LKMFP3Fa9xW-1">
          <mxGeometry x="40" y="100" width="20" height="20" as="geometry" />
        </mxCell>
        <mxCell id="UXM5Mlo9ZRoHdPrbRbku-2" style="edgeStyle=orthogonalEdgeStyle;rounded=0;orthogonalLoop=1;jettySize=auto;html=1;exitX=1;exitY=0.5;exitDx=0;exitDy=0;entryX=0;entryY=0.5;entryDx=0;entryDy=0;fillColor=#dae8fc;strokeColor=#6c8ebf;" edge="1" parent="8Um6TVoQ_LKMFP3Fa9xW-1" source="8Um6TVoQ_LKMFP3Fa9xW-13" target="UXM5Mlo9ZRoHdPrbRbku-0">
          <mxGeometry relative="1" as="geometry" />
        </mxCell>
        <mxCell id="8Um6TVoQ_LKMFP3Fa9xW-13" value="3" style="text;html=1;align=center;verticalAlign=middle;whiteSpace=wrap;rounded=0;fillColor=#dae8fc;strokeColor=#6c8ebf;fontSize=14;fontColor=#333333;" vertex="1" parent="8Um6TVoQ_LKMFP3Fa9xW-1">
          <mxGeometry x="60" y="120" width="40" height="20" as="geometry" />
        </mxCell>
        <mxCell id="8Um6TVoQ_LKMFP3Fa9xW-14" value="4" style="text;html=1;align=center;verticalAlign=middle;whiteSpace=wrap;rounded=0;fontSize=10;" vertex="1" parent="8Um6TVoQ_LKMFP3Fa9xW-1">
          <mxGeometry x="40" y="120" width="20" height="20" as="geometry" />
        </mxCell>
        <mxCell id="8Um6TVoQ_LKMFP3Fa9xW-15" value="1" style="text;html=1;align=center;verticalAlign=middle;whiteSpace=wrap;rounded=0;fillColor=#f5f5f5;strokeColor=#666666;fontSize=14;fontColor=#333333;" vertex="1" parent="8Um6TVoQ_LKMFP3Fa9xW-1">
          <mxGeometry x="140" y="40" width="40" height="20" as="geometry" />
        </mxCell>
        <mxCell id="8Um6TVoQ_LKMFP3Fa9xW-16" value="counts" style="text;html=1;align=center;verticalAlign=middle;whiteSpace=wrap;rounded=0;fontSize=10;" vertex="1" parent="8Um6TVoQ_LKMFP3Fa9xW-1">
          <mxGeometry x="140" y="100" width="80" height="20" as="geometry" />
        </mxCell>
        <mxCell id="8Um6TVoQ_LKMFP3Fa9xW-17" value="2" style="text;html=1;align=center;verticalAlign=middle;whiteSpace=wrap;rounded=0;fillColor=#f5f5f5;strokeColor=#666666;fontSize=14;fontColor=#333333;" vertex="1" parent="8Um6TVoQ_LKMFP3Fa9xW-1">
          <mxGeometry x="180" y="40" width="40" height="20" as="geometry" />
        </mxCell>
        <mxCell id="8Um6TVoQ_LKMFP3Fa9xW-18" value="2" style="text;html=1;align=center;verticalAlign=middle;whiteSpace=wrap;rounded=0;fillColor=#f5f5f5;strokeColor=#666666;fontSize=14;fontColor=#333333;" vertex="1" parent="8Um6TVoQ_LKMFP3Fa9xW-1">
          <mxGeometry x="140" y="60" width="40" height="20" as="geometry" />
        </mxCell>
        <mxCell id="8Um6TVoQ_LKMFP3Fa9xW-19" value="2" style="text;html=1;align=center;verticalAlign=middle;whiteSpace=wrap;rounded=0;fillColor=#f5f5f5;strokeColor=#666666;fontSize=14;fontColor=#333333;" vertex="1" parent="8Um6TVoQ_LKMFP3Fa9xW-1">
          <mxGeometry x="180" y="60" width="40" height="20" as="geometry" />
        </mxCell>
        <mxCell id="UXM5Mlo9ZRoHdPrbRbku-0" value="3" style="text;html=1;align=center;verticalAlign=middle;whiteSpace=wrap;rounded=0;fillColor=#dae8fc;strokeColor=#6c8ebf;fontSize=14;fontColor=#333333;" vertex="1" parent="8Um6TVoQ_LKMFP3Fa9xW-1">
          <mxGeometry x="140" y="80" width="40" height="20" as="geometry" />
        </mxCell>
        <mxCell id="UXM5Mlo9ZRoHdPrbRbku-1" value="1" style="text;html=1;align=center;verticalAlign=middle;whiteSpace=wrap;rounded=0;fillColor=#d5e8d4;strokeColor=#82b366;fontSize=14;fontColor=#333333;" vertex="1" parent="8Um6TVoQ_LKMFP3Fa9xW-1">
          <mxGeometry x="180" y="80" width="40" height="20" as="geometry" />
        </mxCell>
      </root>
    </mxGraphModel>
  </diagram>
  <diagram name="4" id="kL9l6sBjRSU28P1NaZ1y">
    <mxGraphModel dx="479" dy="602" grid="1" gridSize="10" guides="1" tooltips="1" connect="1" arrows="1" fold="1" page="1" pageScale="1" pageWidth="240" pageHeight="180" math="0" shadow="0">
      <root>
        <mxCell id="GDR_39hI-O0Z7qxS237e-0" />
        <mxCell id="GDR_39hI-O0Z7qxS237e-1" parent="GDR_39hI-O0Z7qxS237e-0" />
        <mxCell id="GDR_39hI-O0Z7qxS237e-14" value="1" style="text;html=1;align=center;verticalAlign=middle;whiteSpace=wrap;rounded=0;fillColor=#f5f5f5;strokeColor=#666666;fontSize=14;fontColor=#333333;" vertex="1" parent="GDR_39hI-O0Z7qxS237e-1">
          <mxGeometry x="40" y="60" width="40" height="20" as="geometry" />
        </mxCell>
        <mxCell id="GDR_39hI-O0Z7qxS237e-15" value="counts" style="text;html=1;align=center;verticalAlign=middle;whiteSpace=wrap;rounded=0;fontSize=10;" vertex="1" parent="GDR_39hI-O0Z7qxS237e-1">
          <mxGeometry x="40" y="120" width="80" height="20" as="geometry" />
        </mxCell>
        <mxCell id="7BW9iXI3lWniyniLlIr3-2" value="&lt;font style=&quot;font-size: 10px;&quot;&gt;max(2, 2, 1) = 2&lt;/font&gt;" style="edgeStyle=orthogonalEdgeStyle;rounded=0;orthogonalLoop=1;jettySize=auto;html=1;exitX=0.5;exitY=0;exitDx=0;exitDy=0;entryX=0.5;entryY=0;entryDx=0;entryDy=0;fillColor=#dae8fc;strokeColor=#6c8ebf;" edge="1" parent="GDR_39hI-O0Z7qxS237e-1" source="GDR_39hI-O0Z7qxS237e-16" target="7BW9iXI3lWniyniLlIr3-0">
          <mxGeometry relative="1" as="geometry" />
        </mxCell>
        <mxCell id="GDR_39hI-O0Z7qxS237e-16" value="2" style="text;html=1;align=center;verticalAlign=middle;whiteSpace=wrap;rounded=0;fillColor=#dae8fc;strokeColor=#6c8ebf;fontSize=14;fontColor=#333333;" vertex="1" parent="GDR_39hI-O0Z7qxS237e-1">
          <mxGeometry x="80" y="60" width="40" height="20" as="geometry" />
        </mxCell>
        <mxCell id="GDR_39hI-O0Z7qxS237e-17" value="2" style="text;html=1;align=center;verticalAlign=middle;whiteSpace=wrap;rounded=0;fillColor=#f5f5f5;strokeColor=#666666;fontSize=14;fontColor=#333333;" vertex="1" parent="GDR_39hI-O0Z7qxS237e-1">
          <mxGeometry x="40" y="80" width="40" height="20" as="geometry" />
        </mxCell>
        <mxCell id="GDR_39hI-O0Z7qxS237e-18" value="2" style="text;html=1;align=center;verticalAlign=middle;whiteSpace=wrap;rounded=0;fillColor=#dae8fc;strokeColor=#6c8ebf;fontSize=14;fontColor=#333333;" vertex="1" parent="GDR_39hI-O0Z7qxS237e-1">
          <mxGeometry x="80" y="80" width="40" height="20" as="geometry" />
        </mxCell>
        <mxCell id="GDR_39hI-O0Z7qxS237e-19" value="3" style="text;html=1;align=center;verticalAlign=middle;whiteSpace=wrap;rounded=0;fillColor=#f5f5f5;strokeColor=#666666;fontSize=14;fontColor=#333333;" vertex="1" parent="GDR_39hI-O0Z7qxS237e-1">
          <mxGeometry x="40" y="100" width="40" height="20" as="geometry" />
        </mxCell>
        <mxCell id="GDR_39hI-O0Z7qxS237e-20" value="1" style="text;html=1;align=center;verticalAlign=middle;whiteSpace=wrap;rounded=0;fillColor=#dae8fc;strokeColor=#6c8ebf;fontSize=14;fontColor=#333333;" vertex="1" parent="GDR_39hI-O0Z7qxS237e-1">
          <mxGeometry x="80" y="100" width="40" height="20" as="geometry" />
        </mxCell>
        <mxCell id="7BW9iXI3lWniyniLlIr3-0" value="2" style="text;html=1;align=center;verticalAlign=middle;whiteSpace=wrap;rounded=0;fillColor=#d5e8d4;strokeColor=#82b366;fontSize=14;fontColor=#333333;" vertex="1" parent="GDR_39hI-O0Z7qxS237e-1">
          <mxGeometry x="160" y="60" width="40" height="40" as="geometry" />
        </mxCell>
        <mxCell id="7BW9iXI3lWniyniLlIr3-1" value="max" style="text;html=1;align=center;verticalAlign=middle;whiteSpace=wrap;rounded=0;fontSize=10;" vertex="1" parent="GDR_39hI-O0Z7qxS237e-1">
          <mxGeometry x="160" y="100" width="40" height="20" as="geometry" />
        </mxCell>
      </root>
    </mxGraphModel>
  </diagram>
  <diagram name="5" id="M7QGD9olXICFezPvba8j">
    <mxGraphModel dx="479" dy="602" grid="1" gridSize="10" guides="1" tooltips="1" connect="1" arrows="1" fold="1" page="1" pageScale="1" pageWidth="260" pageHeight="260" math="0" shadow="0">
      <root>
        <mxCell id="G7G76abGRwbNvzJvh-32-0" />
        <mxCell id="G7G76abGRwbNvzJvh-32-1" parent="G7G76abGRwbNvzJvh-32-0" />
        <mxCell id="PhACnv6cQi0PfdjRDshq-4" style="edgeStyle=orthogonalEdgeStyle;rounded=0;orthogonalLoop=1;jettySize=auto;html=1;exitX=0;exitY=0.5;exitDx=0;exitDy=0;entryX=0;entryY=0.5;entryDx=0;entryDy=0;fillColor=#dae8fc;strokeColor=#6c8ebf;" edge="1" parent="G7G76abGRwbNvzJvh-32-1" source="G7G76abGRwbNvzJvh-32-2" target="PhACnv6cQi0PfdjRDshq-0">
          <mxGeometry relative="1" as="geometry" />
        </mxCell>
        <mxCell id="G7G76abGRwbNvzJvh-32-2" value="1" style="text;html=1;align=center;verticalAlign=middle;whiteSpace=wrap;rounded=0;fillColor=#dae8fc;strokeColor=#6c8ebf;fontSize=14;fontColor=#333333;" vertex="1" parent="G7G76abGRwbNvzJvh-32-1">
          <mxGeometry x="60" y="60" width="40" height="20" as="geometry" />
        </mxCell>
        <mxCell id="G7G76abGRwbNvzJvh-32-3" value="counts" style="text;html=1;align=center;verticalAlign=middle;whiteSpace=wrap;rounded=0;fontSize=10;" vertex="1" parent="G7G76abGRwbNvzJvh-32-1">
          <mxGeometry x="60" y="120" width="80" height="20" as="geometry" />
        </mxCell>
        <mxCell id="PhACnv6cQi0PfdjRDshq-3" value="&lt;font style=&quot;font-size: 10px;&quot;&gt;2 == 2&lt;/font&gt;" style="edgeStyle=orthogonalEdgeStyle;rounded=0;orthogonalLoop=1;jettySize=auto;html=1;exitX=0.5;exitY=0;exitDx=0;exitDy=0;entryX=0.5;entryY=0;entryDx=0;entryDy=0;fillColor=#d5e8d4;strokeColor=#82b366;" edge="1" parent="G7G76abGRwbNvzJvh-32-1" source="G7G76abGRwbNvzJvh-32-5" target="G7G76abGRwbNvzJvh-32-10">
          <mxGeometry relative="1" as="geometry" />
        </mxCell>
        <mxCell id="G7G76abGRwbNvzJvh-32-5" value="2" style="text;html=1;align=center;verticalAlign=middle;whiteSpace=wrap;rounded=0;fillColor=#d5e8d4;strokeColor=#82b366;fontSize=14;fontColor=#333333;" vertex="1" parent="G7G76abGRwbNvzJvh-32-1">
          <mxGeometry x="100" y="60" width="40" height="20" as="geometry" />
        </mxCell>
        <mxCell id="G7G76abGRwbNvzJvh-32-6" value="2" style="text;html=1;align=center;verticalAlign=middle;whiteSpace=wrap;rounded=0;fillColor=#f5f5f5;strokeColor=#666666;fontSize=14;fontColor=#333333;" vertex="1" parent="G7G76abGRwbNvzJvh-32-1">
          <mxGeometry x="60" y="80" width="40" height="20" as="geometry" />
        </mxCell>
        <mxCell id="G7G76abGRwbNvzJvh-32-7" value="2" style="text;html=1;align=center;verticalAlign=middle;whiteSpace=wrap;rounded=0;fillColor=#f5f5f5;strokeColor=#666666;fontSize=14;fontColor=#333333;" vertex="1" parent="G7G76abGRwbNvzJvh-32-1">
          <mxGeometry x="100" y="80" width="40" height="20" as="geometry" />
        </mxCell>
        <mxCell id="G7G76abGRwbNvzJvh-32-8" value="3" style="text;html=1;align=center;verticalAlign=middle;whiteSpace=wrap;rounded=0;fillColor=#f5f5f5;strokeColor=#666666;fontSize=14;fontColor=#333333;" vertex="1" parent="G7G76abGRwbNvzJvh-32-1">
          <mxGeometry x="60" y="100" width="40" height="20" as="geometry" />
        </mxCell>
        <mxCell id="G7G76abGRwbNvzJvh-32-9" value="1" style="text;html=1;align=center;verticalAlign=middle;whiteSpace=wrap;rounded=0;fillColor=#f5f5f5;strokeColor=#666666;fontSize=14;fontColor=#333333;" vertex="1" parent="G7G76abGRwbNvzJvh-32-1">
          <mxGeometry x="100" y="100" width="40" height="20" as="geometry" />
        </mxCell>
        <mxCell id="G7G76abGRwbNvzJvh-32-10" value="2" style="text;html=1;align=center;verticalAlign=middle;whiteSpace=wrap;rounded=0;fillColor=#d5e8d4;strokeColor=#82b366;fontSize=14;fontColor=#333333;" vertex="1" parent="G7G76abGRwbNvzJvh-32-1">
          <mxGeometry x="180" y="60" width="40" height="40" as="geometry" />
        </mxCell>
        <mxCell id="G7G76abGRwbNvzJvh-32-11" value="max" style="text;html=1;align=center;verticalAlign=middle;whiteSpace=wrap;rounded=0;fontSize=10;" vertex="1" parent="G7G76abGRwbNvzJvh-32-1">
          <mxGeometry x="180" y="100" width="40" height="20" as="geometry" />
        </mxCell>
        <mxCell id="PhACnv6cQi0PfdjRDshq-0" value="1" style="text;html=1;align=center;verticalAlign=middle;whiteSpace=wrap;rounded=0;fillColor=#dae8fc;strokeColor=#6c8ebf;fontSize=14;fontColor=#333333;" vertex="1" parent="G7G76abGRwbNvzJvh-32-1">
          <mxGeometry x="60" y="160" width="40" height="40" as="geometry" />
        </mxCell>
        <mxCell id="PhACnv6cQi0PfdjRDshq-5" value="result" style="text;html=1;align=center;verticalAlign=middle;whiteSpace=wrap;rounded=0;fontSize=10;" vertex="1" parent="G7G76abGRwbNvzJvh-32-1">
          <mxGeometry x="60" y="200" width="40" height="20" as="geometry" />
        </mxCell>
      </root>
    </mxGraphModel>
  </diagram>
</mxfile>
